<svg width="20" height="20" viewBox="0 0 20 20" fill="none" xmlns="http://www.w3.org/2000/svg">
<path fill-rule="evenodd" clip-rule="evenodd" d="M1.65918 8.18178C1.65918 4.57938 4.5795 1.65906 8.18191 1.65906C11.7843 1.65906 14.7046 4.57938 14.7046 8.18178C14.7046 11.7842 11.7843 14.7045 8.18191 14.7045C4.5795 14.7045 1.65918 11.7842 1.65918 8.18178ZM8.18191 0.159058C3.75108 0.159058 0.15918 3.75095 0.15918 8.18178C0.15918 12.6126 3.75108 16.2045 8.18191 16.2045C10.1273 16.2045 11.9109 15.5121 13.2998 14.3603L18.5607 19.6212L19.6213 18.5605L14.3605 13.2997C15.5122 11.9108 16.2046 10.1271 16.2046 8.18178C16.2046 3.75095 12.6127 0.159058 8.18191 0.159058Z" fill="black"/>
</svg>
