<svg width="120" height="40" viewBox="0 0 120 40" fill="none" xmlns="http://www.w3.org/2000/svg">
<path d="M102.269 37.4811V39.9994H119.553V28.6421H117.035V37.4811H102.269ZM102.269 0V2.51826H117.035V11.3579H119.553V0H102.269ZM93.3562 19.4816V13.6299H97.3069C99.233 13.6299 99.9244 14.2718 99.9244 16.0251V17.0619C99.9244 18.8643 99.2575 19.4816 97.3069 19.4816H93.3562ZM99.6274 20.5184C101.43 20.0493 102.689 18.3701 102.689 16.3705C102.689 15.1114 102.195 13.9754 101.257 13.0616C100.072 11.9256 98.4914 11.3579 96.4422 11.3579H90.887V28.6415H93.3562V21.753H97.0601C98.9611 21.753 99.7266 22.5431 99.7266 24.5187V28.6421H102.245V24.9137C102.245 22.1977 101.603 21.1608 99.6274 20.8644V20.5184ZM78.8383 21.0861H86.4433V18.8147H78.8383V13.6293H87.1837V11.3579H76.3194V28.6415H87.5542V26.3701H78.8383V21.0861ZM70.5664 21.9999V23.1849C70.5664 25.6786 69.6526 26.4938 67.3567 26.4938H66.8135C64.5169 26.4938 63.406 25.7527 63.406 22.3208V17.6786C63.406 14.2222 64.5665 13.5056 66.8625 13.5056H67.3561C69.6031 13.5056 70.319 14.3453 70.3435 16.6663H73.0595C72.8127 13.2588 70.5413 11.1111 67.1338 11.1111C65.4796 11.1111 64.0968 11.6298 63.06 12.617C61.5044 14.074 60.6403 16.5432 60.6403 19.9997C60.6403 23.3331 61.3813 25.8023 62.9118 27.3328C63.9486 28.3451 65.381 28.8883 66.7884 28.8883C68.2698 28.8883 69.6281 28.2955 70.319 27.0119H70.6644V28.6415H72.9358V19.7284H66.2446V21.9999H70.5664ZM48.7894 13.6293H51.481C54.0243 13.6293 55.4072 14.2712 55.4072 17.7282V22.2712C55.4072 25.7276 54.0243 26.3701 51.481 26.3701H48.7894V13.6293ZM51.7027 28.6421C56.4189 28.6421 58.1717 25.0619 58.1717 20.0003C58.1717 14.8646 56.2952 11.3585 51.6531 11.3585H46.3196V28.6421H51.7027ZM34.3946 21.0861H41.9995V18.8147H34.3946V13.6293H42.74V11.3579H31.8757V28.6415H43.1105V26.3701H34.3946V21.0861ZM19.827 11.3579H17.3087V28.6415H28.6666V26.3701H19.827V11.3579ZM0 28.6421V40H17.2836V37.4811H2.51826V28.6421H0ZM0 0V11.3579H2.51826V2.51826H17.2836V0H0Z" fill="white"/>
</svg>
