<svg width="96" height="32" viewBox="0 0 96 32" fill="none" xmlns="http://www.w3.org/2000/svg">
<path d="M82.121 29.9849V31.9995H95.9995V22.9137H93.9774V29.9849H82.121ZM82.121 0V2.01461H93.9774V9.08631H95.9995V0H82.121ZM74.9639 15.5853V10.904H78.1362C79.6828 10.904 80.238 11.4174 80.238 12.8201V13.6495C80.238 15.0914 79.7025 15.5853 78.1362 15.5853H74.9639ZM79.9995 16.4147C81.4468 16.0394 82.4578 14.696 82.4578 13.0964C82.4578 12.0891 82.0615 11.1803 81.3081 10.4493C80.3565 9.54048 79.0873 9.08631 77.4419 9.08631H72.9811V22.9132H74.9639V17.4024H77.938C79.4645 17.4024 80.0792 18.0345 80.0792 19.615V22.9137H82.1013V19.931C82.1013 17.7581 81.5859 16.9287 79.9995 16.6915V16.4147ZM63.3061 16.8689H69.4128V15.0517H63.3061V10.9035H70.0074V9.08631H61.2835V22.9132H70.3049V21.0961H63.3061V16.8689ZM56.6639 17.5999V18.5479C56.6639 20.5429 55.9302 21.195 54.0866 21.195H53.6504C51.8063 21.195 50.9142 20.6022 50.9142 17.8566V14.1429C50.9142 11.3777 51.8461 10.8045 53.6897 10.8045H54.0861C55.8904 10.8045 56.4652 11.4762 56.4849 13.3331H58.6659C58.4677 10.6071 56.6437 8.88886 53.9076 8.88886C52.5793 8.88886 51.4689 9.30383 50.6364 10.0936C49.3873 11.2592 48.6934 13.2346 48.6934 15.9998C48.6934 18.6665 49.2884 20.6419 50.5174 21.8662C51.3499 22.6761 52.5001 23.1107 53.6302 23.1107C54.8198 23.1107 55.9105 22.6364 56.4652 21.6095H56.7426V22.9132H58.5665V15.7827H53.1935V17.5999H56.6639ZM39.1773 10.9035H41.3386C43.3809 10.9035 44.4913 11.4169 44.4913 14.1826V17.8169C44.4913 20.5821 43.3809 21.0961 41.3386 21.0961H39.1773V10.9035ZM41.5166 22.9137C45.3037 22.9137 46.7111 20.0495 46.7111 16.0002C46.7111 11.8917 45.2043 9.08679 41.4768 9.08679H37.194V22.9137H41.5166ZM27.6184 16.8689H33.7251V15.0517H27.6184V10.9035H34.3196V9.08631H25.5958V22.9132H34.6172V21.0961H27.6184V16.8689ZM15.9208 9.08631H13.8987V22.9132H23.0189V21.0961H15.9208V9.08631ZM0 22.9137V32H13.8785V29.9849H2.02213V22.9137H0ZM0 0V9.08631H2.02213V2.01461H13.8785V0H0Z" fill="black"/>
</svg>
